<svg xmlns="http://www.w3.org/2000/svg" viewBox="0 0 300 300"><g fill="none" stroke-width="2"><path stroke="#f18e92" d="M83.51 17.23C5.31 55.88-23.67 153.99 22.53 228.89c24.89 40.35 67.5 64.76 114.73 69.78q10.21 1.09 18.92.46c32.99-2.37 63.59-13.62 89.11-34.48 61.19-50.01 71.46-138.61 25.3-201.99C227.77 3.87 148.07-14.69 83.51 17.23" vector-effect="non-scaling-stroke"/><path stroke="#e7463b" d="M124.95 97.15q-1.8 1.82-4.14 1.54" vector-effect="non-scaling-stroke"/><path stroke="#f18e92" d="m120.81 98.69 9.4-51.53a.31.31 0 0 0-.42-.34L92.93 61.45q-.48.2-.44.72l4.16 51.14" vector-effect="non-scaling-stroke"/><path stroke="#e7463b" d="m96.65 113.31-2.2 2.1" vector-effect="non-scaling-stroke"/><path stroke="#f18e92" d="m94.45 115.41-9.26-43.47q-.15-.7-.67-.2L59.15 96.18a1.2 1.2 0 0 0-.23 1.41l20 39.21" vector-effect="non-scaling-stroke"/><path stroke="#e7463b" d="M78.92 136.8q-.48 2.23-1.75 3.76" vector-effect="non-scaling-stroke"/><path stroke="#f18e92" d="m77.17 140.56-19.89-28.5a.41.41 0 0 0-.71.08L45.8 137.28q-.22.5.2.86l18.53 15.7" vector-effect="non-scaling-stroke"/><path stroke="#e7463b" d="M64.53 153.84q-1.66 1.12-4.15 1.32" vector-effect="non-scaling-stroke"/><path stroke="#f18e92" d="m60.38 155.16-12.81-9.36a.3.3 0 0 0-.48.22l-.62 9.06" vector-effect="non-scaling-stroke"/><path stroke="#e7463b" d="M46.47 155.08q-8.08-.14-16.14-.06c-4.3.04-8.3 1.09-8.83 5.73q-.57 5.05 1.12 14.27c9.86 53.75 50.49 95.13 104.48 104.79 73.72 13.19 142.68-38.12 151.08-112.56.77-6.76-.22-12.23-8.18-12.31q-23.86-.23-47.73.46" vector-effect="non-scaling-stroke"/><path stroke="#ea675f" d="m222.27 155.4-9.34-45.92a.39.38-22.5 0 0-.59-.24l-10.3 6.76" vector-effect="non-scaling-stroke"/><path stroke="#e7463b" d="M202.04 116q-6.53-7.07-14.97-11.83" vector-effect="non-scaling-stroke"/><path stroke="#f18e92" d="M187.07 104.17q1.33-1.47 3.4-3.19 27.58-22.87 55.13-45.92a.29.28 33.9 0 0-.1-.49l-47.26-15.49q-.41-.13-.66.22l-38.83 55.09" vector-effect="non-scaling-stroke"/><path stroke="#e7463b" d="M158.75 94.39q-2.52.7-4.79-.14" vector-effect="non-scaling-stroke"/><path stroke="#f18e92" d="m153.96 94.25 33.58-54.62q.32-.51-.28-.51l-44.72.41q-.45.01-.58.44l-17.01 57.18" vector-effect="non-scaling-stroke"/><path stroke="#f5b7a9" d="M153.96 94.25q-14.65-.57-29.01 2.9" vector-effect="non-scaling-stroke"/><path stroke="#ef8f76" d="M202.04 116q-3.78 3.34-8.15 5.75" vector-effect="non-scaling-stroke"/><path stroke="#f5b7a9" d="M193.89 121.75q-22.44-19.96-50.83-17.44c-58.54 5.19-82.24 75.59-40.31 116.48" vector-effect="non-scaling-stroke"/><path stroke="#e7463b" d="m102.75 220.79-14.86 30.78a.56.56 0 0 0 .68.77q10.45-3.56 21.1-4.9c14.18-1.77 27.95 2.34 41.48 5.85q.64.16.95-.42l5.58-10.67q.24-.47.05-.96-5.16-13.11-11.59-25.56" vector-effect="non-scaling-stroke"/><path stroke="#f5b7a9" d="M146.14 215.68 135.17 191" vector-effect="non-scaling-stroke"/><path stroke="#ef8f76" d="m135.17 191 89.21-20.13a.76.75-11.5 0 0 .58-.87l-2.69-14.6" vector-effect="non-scaling-stroke"/><path stroke="#f5b7a9" d="M46.47 155.08q-.65 7.23-1.28 14.67-.12 1.46 1.48 2.1 12.04 4.85 24.29 9.72a.56.56 0 0 0 .77-.58q-.81-8.4-.17-16.79.04-.55-.39-.88l-10.79-8.16M64.53 153.84l6.98 5.73q.44.36.56-.19 2.03-9.57 5.1-18.82" vector-effect="non-scaling-stroke"/><path stroke="#f9d8cc" d="m193.89 121.75-72.07 49.9q-1.04.72-.64 1.91l6.21 18.76q.18.56.76.42l7.02-1.74" vector-effect="non-scaling-stroke"/><path stroke="#f18e92" d="M146.14 215.68c-12.36-2.16-33.17-3.52-43.39 5.11" vector-effect="non-scaling-stroke"/><path stroke="#f5b7a9" d="M120.81 98.69q-12.77 6.35-24.16 14.62M94.45 115.41q-8.54 10.18-15.53 21.39M187.07 104.17q-.74-.04-1.48-.43-12.73-6.86-26.84-9.35M54.25 199.95a.34.34 0 0 0 .32.24l21.46.19a.34.34 0 0 0 .33-.44l-4.21-14.77a.34.34 0 0 0-.23-.23l-23.54-6.45a.34.34 0 0 0-.41.43l6.28 21.03M155.91 200.22q-4.09-3.77-8.23-7.53a.3.3 0 0 0-.47.34l32.08 70.43q.25.55.8.32 8.54-3.59 13.71-10.75c1.73-2.41.82-3.6-.08-6.02q-4.78-12.95-11.08-22.81c-6.48-10.14-18.02-15.95-26.73-23.98M77.72 203.03a.32.32 0 0 0-.31-.16l-19.56 2.34a.32.32 0 0 0-.21.52l12.5 15.58a.32.32 0 0 0 .37.1l13.85-5.68a.32.32 0 0 0 .16-.45l-6.8-12.25M95.43 154.09c5-21.25 26.66-35.35 45.47-43.76a.49.49 0 0 0-.01-.9c-1.98-.79-3.64-.92-5.81-.29C87.68 123 70.4 170.31 99.21 211.9q.5.73 1.35.44l9.53-3.27a.54.54 0 0 0 .26-.83c-11.37-15.3-19.45-34.88-14.92-54.15" vector-effect="non-scaling-stroke"/><path stroke="#f9d8cc" d="M213.04 163.19a.48.48 0 0 0 .37-.56l-7.21-36.13a.48.48 0 0 0-.74-.31l-72.66 50.17a.48.48 0 0 0-.16.6l1.67 3.55a.48.48 0 0 0 .54.27l78.19-17.59" vector-effect="non-scaling-stroke"/><path stroke="#e7463b" d="M104.47 231.71c11.06-9.95 22.78-10.15 36.97-9.23a.31.31 0 0 0 .15-.6q-12.05-5.45-24.21-3.05c-8.03 1.58-10.01 6.16-13.32 12.56a.27.26 82.8 0 0 .41.32" vector-effect="non-scaling-stroke"/></g><path fill="#fff" d="M0 0h300v300H0V0Zm83.51 17.23C5.31 55.88-23.67 153.99 22.53 228.89c24.89 40.35 67.5 64.76 114.73 69.78q10.21 1.09 18.92.46c32.99-2.37 63.59-13.62 89.11-34.48 61.19-50.01 71.46-138.61 25.3-201.99C227.77 3.87 148.07-14.69 83.51 17.23Z"/><path fill="#e21d24" d="M22.53 228.89c-46.2-74.9-17.22-173.01 60.98-211.66 64.56-31.92 144.26-13.36 187.08 45.43 46.16 63.38 35.89 151.98-25.3 201.99-25.52 20.86-56.12 32.11-89.11 34.48q-8.71.63-18.92-.46c-47.23-5.02-89.84-29.43-114.73-69.78ZM124.95 97.15q-1.8 1.82-4.14 1.54l9.4-51.53a.31.31 0 0 0-.42-.34L92.93 61.45q-.48.2-.44.72l4.16 51.14-2.2 2.1-9.26-43.47q-.15-.7-.67-.2L59.15 96.18a1.2 1.2 0 0 0-.23 1.41l20 39.21q-.48 2.23-1.75 3.76l-19.89-28.5a.41.41 0 0 0-.71.08L45.8 137.28q-.22.5.2.86l18.53 15.7q-1.66 1.12-4.15 1.32l-12.81-9.36a.3.3 0 0 0-.48.22l-.62 9.06q-8.08-.14-16.14-.06c-4.3.04-8.3 1.09-8.83 5.73q-.57 5.05 1.12 14.27c9.86 53.75 50.49 95.13 104.48 104.79 73.72 13.19 142.68-38.12 151.08-112.56.77-6.76-.22-12.23-8.18-12.31q-23.86-.23-47.73.46l-9.34-45.92a.39.38-22.5 0 0-.59-.24l-10.3 6.76q-6.53-7.07-14.97-11.83 1.33-1.47 3.4-3.19 27.58-22.87 55.13-45.92a.29.28 33.9 0 0-.1-.49l-47.26-15.49q-.41-.13-.66.22l-38.83 55.09q-2.52.7-4.79-.14l33.58-54.62q.32-.51-.28-.51l-44.72.41q-.45.01-.58.44l-17.01 57.18Z"/><path fill="#fff" d="M153.96 94.25q-14.65-.57-29.01 2.9l17.01-57.18q.13-.43.58-.44l44.72-.41q.6 0 .28.51l-33.58 54.62ZM187.07 104.17q-.74-.04-1.48-.43-12.73-6.86-26.84-9.35l38.83-55.09q.25-.35.66-.22l47.26 15.49a.29.28 33.9 0 1 .1.49q-27.55 23.05-55.13 45.92-2.07 1.72-3.4 3.19ZM120.81 98.69q-12.77 6.35-24.16 14.62l-4.16-51.14q-.04-.52.44-.72l36.86-14.63a.31.31 0 0 1 .42.34l-9.4 51.53ZM94.45 115.41q-8.54 10.18-15.53 21.39l-20-39.21a1.2 1.2 0 0 1 .23-1.41l25.37-24.44q.52-.5.67.2l9.26 43.47Z"/><path fill="#eb6e52" d="M153.96 94.25q2.27.84 4.79.14 14.11 2.49 26.84 9.35.74.39 1.48.43 8.44 4.76 14.97 11.83-3.78 3.34-8.15 5.75-22.44-19.96-50.83-17.44c-58.54 5.19-82.24 75.59-40.31 116.48l-14.86 30.78a.56.56 0 0 0 .68.77q10.45-3.56 21.1-4.9c14.18-1.77 27.95 2.34 41.48 5.85q.64.16.95-.42l5.58-10.67q.24-.47.05-.96-5.16-13.11-11.59-25.56L135.17 191l89.21-20.13a.76.75-11.5 0 0 .58-.87l-2.69-14.6q23.87-.69 47.73-.46c7.96.08 8.95 5.55 8.18 12.31-8.4 74.44-77.36 125.75-151.08 112.56-53.99-9.66-94.62-51.04-104.48-104.79q-1.69-9.22-1.12-14.27c.53-4.64 4.53-5.69 8.83-5.73q8.06-.08 16.14.06-.65 7.23-1.28 14.67-.12 1.46 1.48 2.1 12.04 4.85 24.29 9.72a.56.56 0 0 0 .77-.58q-.81-8.4-.17-16.79.04-.55-.39-.88l-10.79-8.16q2.49-.2 4.15-1.32l6.98 5.73q.44.36.56-.19 2.03-9.57 5.1-18.82 1.27-1.53 1.75-3.76 6.99-11.21 15.53-21.39l2.2-2.1q11.39-8.27 24.16-14.62 2.34.28 4.14-1.54 14.36-3.47 29.01-2.9Zm-99.71 105.7a.34.34 0 0 0 .32.24l21.46.19a.34.34 0 0 0 .33-.44l-4.21-14.77a.34.34 0 0 0-.23-.23l-23.54-6.45a.34.34 0 0 0-.41.43l6.28 21.03Zm101.66.27q-4.09-3.77-8.23-7.53a.3.3 0 0 0-.47.34l32.08 70.43q.25.55.8.32 8.54-3.59 13.71-10.75c1.73-2.41.82-3.6-.08-6.02q-4.78-12.95-11.08-22.81c-6.48-10.14-18.02-15.95-26.73-23.98Zm-78.19 2.81a.32.32 0 0 0-.31-.16l-19.56 2.34a.32.32 0 0 0-.21.52l12.5 15.58a.32.32 0 0 0 .37.1l13.85-5.68a.32.32 0 0 0 .16-.45l-6.8-12.25Z"/><path fill="#fff" d="m193.89 121.75-72.07 49.9q-1.04.72-.64 1.91l6.21 18.76q.18.56.76.42l7.02-1.74 10.97 24.68c-12.36-2.16-33.17-3.52-43.39 5.11-41.93-40.89-18.23-111.29 40.31-116.48q28.39-2.52 50.83 17.44Zm-98.46 32.34c5-21.25 26.66-35.35 45.47-43.76a.49.49 0 0 0-.01-.9c-1.98-.79-3.64-.92-5.81-.29C87.68 123 70.4 170.31 99.21 211.9q.5.73 1.35.44l9.53-3.27a.54.54 0 0 0 .26-.83c-11.37-15.3-19.45-34.88-14.92-54.15Z"/><path fill="#eb6e52" d="M95.43 154.09c-4.53 19.27 3.55 38.85 14.92 54.15a.54.54 0 0 1-.26.83l-9.53 3.27q-.85.29-1.35-.44C70.4 170.31 87.68 123 135.08 109.14c2.17-.63 3.83-.5 5.81.29a.49.49 0 0 1 .01.9c-18.81 8.41-40.47 22.51-45.47 43.76Z"/><path fill="#f2b099" d="m222.27 155.4 2.69 14.6a.76.75-11.5 0 1-.58.87L135.17 191l-7.02 1.74q-.58.14-.76-.42l-6.21-18.76q-.4-1.19.64-1.91l72.07-49.9q4.37-2.41 8.15-5.75l10.3-6.76a.39.38-22.5 0 1 .59.24l9.34 45.92Zm-9.23 7.79a.48.48 0 0 0 .37-.56l-7.21-36.13a.48.48 0 0 0-.74-.31l-72.66 50.17a.48.48 0 0 0-.16.6l1.67 3.55a.48.48 0 0 0 .54.27l78.19-17.59Z"/><path fill="#fff" d="M77.17 140.56q-3.07 9.25-5.1 18.82-.12.55-.56.19l-6.98-5.73L46 138.14q-.42-.36-.2-.86l10.77-25.14a.41.41 0 0 1 .71-.08l19.89 28.5ZM213.04 163.19l-78.19 17.59a.48.48 0 0 1-.54-.27l-1.67-3.55a.48.48 0 0 1 .16-.6l72.66-50.17a.48.48 0 0 1 .74.31l7.21 36.13a.48.48 0 0 1-.37.56ZM60.38 155.16l10.79 8.16q.43.33.39.88-.64 8.39.17 16.79a.56.56 0 0 1-.77.58q-12.25-4.87-24.29-9.72-1.6-.64-1.48-2.1.63-7.44 1.28-14.67l.62-9.06a.3.3 0 0 1 .48-.22l12.81 9.36ZM54.25 199.95l-6.28-21.03a.34.34 0 0 1 .41-.43l23.54 6.45a.34.34 0 0 1 .23.23l4.21 14.77a.34.34 0 0 1-.33.44l-21.46-.19a.34.34 0 0 1-.32-.24ZM155.91 200.22c8.71 8.03 20.25 13.84 26.73 23.98q6.3 9.86 11.08 22.81c.9 2.42 1.81 3.61.08 6.02q-5.17 7.16-13.71 10.75-.55.23-.8-.32l-32.08-70.43a.3.3 0 0 1 .47-.34q4.14 3.76 8.23 7.53ZM77.72 203.03l6.8 12.25a.32.32 0 0 1-.16.45l-13.85 5.68a.32.32 0 0 1-.37-.1l-12.5-15.58a.32.32 0 0 1 .21-.52l19.56-2.34a.32.32 0 0 1 .31.16Z"/><path fill="#e21d24" d="M146.14 215.68q6.43 12.45 11.59 25.56.19.49-.05.96l-5.58 10.67q-.31.58-.95.42c-13.53-3.51-27.3-7.62-41.48-5.85q-10.65 1.34-21.1 4.9a.56.56 0 0 1-.68-.77l14.86-30.78c10.22-8.63 31.03-7.27 43.39-5.11Zm-41.67 16.03c11.06-9.95 22.78-10.15 36.97-9.23a.31.31 0 0 0 .15-.6q-12.05-5.45-24.21-3.05c-8.03 1.58-10.01 6.16-13.32 12.56a.27.26 82.8 0 0 .41.32Z"/><path fill="#eb6e52" d="M141.44 222.48c-14.19-.92-25.91-.72-36.97 9.23a.27.26 82.8 0 1-.41-.32c3.31-6.4 5.29-10.98 13.32-12.56q12.16-2.4 24.21 3.05a.31.31 0 0 1-.15.6Z"/></svg>