<?xml version="1.0" encoding="UTF-8" standalone="no"?>
<svg
   width="543.11102"
   height="172"
   version="1.1"
   id="svg29"
   xmlns="http://www.w3.org/2000/svg"
   xmlns:svg="http://www.w3.org/2000/svg">
  <defs
     id="defs33" />
  <g
     id="g5"
     transform="translate(1,1)">
    <title
       id="title2">background</title>
    <rect
       fill="none"
       id="canvas_background"
       height="172"
       width="522"
       y="-1"
       x="-1" />
  </g>
  <g
     id="g27"
     transform="translate(1,1)">
    <title
       id="title7">Layer 1</title>
    <path
       fill="#607d8a"
       id="svg_3"
       d="m 27.04863,87.660851 c 13.144978,4.078949 30.480076,6.325912 48.813126,6.325912 7.223,0 14.335999,-0.348991 21.142998,-1.03598 4.121006,-0.415993 7.123996,-4.09494 6.707996,-8.215881 -0.417,-4.120941 -4.096996,-7.127907 -8.215992,-6.707916 -6.306999,0.637001 -12.913002,0.959999 -19.635002,0.959999 -37.42915,0 -56.7861,-9.301872 -58.389095,-13.110817 V 48.336266 c 2.707991,1.293007 5.871981,2.53001 9.574966,3.680012 13.144981,4.07896 30.48008,6.325958 48.813129,6.325958 18.333049,0 35.667944,-2.246998 48.812754,-6.325958 20.31195,-6.304031 24.57495,-15.238094 24.57495,-21.623135 0,-6.385041 -4.26399,-15.319056 -24.57495,-21.623079 C 111.5287,4.691049 94.194755,2.44404 75.860756,2.44404 57.526757,2.44404 40.193607,4.692033 27.04863,8.771056 6.737681,15.07408 2.473678,24.00911 2.473678,30.394135 V 137.29126 c 0,11.567 13.36399,18.14299 24.574952,21.62199 13.145977,4.079 30.480076,6.32601 48.813126,6.32601 7.215996,0 14.326996,-0.349 21.136002,-1.03501 4.120992,-0.41499 7.125002,-4.09399 6.709002,-8.21499 -0.415,-4.121 -4.088007,-7.135 -8.215006,-6.709 -6.309998,0.63699 -12.914001,0.959 -19.629997,0.959 -37.427151,0 -56.785101,-9.301 -58.389095,-13.11 v -15.7649 c 3.196987,1.54697 6.581978,2.79796 9.789967,3.79394 13.144981,4.07896 30.48008,6.32595 48.813126,6.32595 6.867004,0 13.649002,-0.315 20.159004,-0.938 4.123001,-0.39499 7.145991,-4.05697 6.752001,-8.17991 -0.39501,-4.12395 -4.074999,-7.14889 -8.180002,-6.7519 -6.037003,0.57699 -12.340004,0.86998 -18.731003,0.86998 -37.438145,0 -56.796099,-9.30685 -58.390091,-13.1128 -0.012,-0.55199 -0.088,-1.08598 -0.213001,-1.60299 V 83.971892 c 3.134991,1.498985 6.43898,2.715965 9.57597,3.688957 z m 6.76598,-65.246752 c 11.471012,-3.205006 26.403111,-4.970018 42.048145,-4.970018 15.643997,0 30.575995,1.765013 42.046855,4.970018 11.36384,3.175018 15.44986,6.673029 16.25085,7.979036 -0.80099,1.307001 -4.88701,4.805027 -16.25085,7.979046 -11.47086,3.205025 -26.402858,4.970036 -42.046855,4.970036 -15.645035,0 -30.577133,-1.765011 -42.048145,-4.970036 -11.363966,-3.175018 -15.449955,-6.673044 -16.25095,-7.979046 0.800995,-1.306007 4.886984,-4.804018 16.25095,-7.979036 z" />
    <g
       id="svg_5" />
    <g
       id="svg_6" />
    <g
       id="svg_7" />
    <g
       id="svg_8" />
    <g
       id="svg_9" />
    <g
       id="svg_10" />
    <g
       id="svg_11" />
    <g
       id="svg_12" />
    <g
       id="svg_13" />
    <g
       id="svg_14" />
    <g
       id="svg_15" />
    <g
       id="svg_16" />
    <g
       id="svg_17" />
    <g
       id="svg_18" />
    <g
       id="svg_19" />
    <text
       xml:space="preserve"
       text-anchor="left"
       font-family="'Trebuchet MS', Gadget, sans-serif"
       font-size="134px"
       id="svg_23"
       y="163.63095"
       x="122.08997"
       stroke-opacity="null"
       stroke-width="0"
       stroke="null"
       fill="#859ca6">Lite</text>
    <text
       font-weight="bold"
       xml:space="preserve"
       text-anchor="left"
       font-family="'Trebuchet MS', Gadget, sans-serif"
       font-size="134px"
       id="svg_22"
       y="166.04109"
       x="354.65497"
       stroke-opacity="null"
       stroke-width="0"
       stroke="null"
       fill="#607d8a">DB</text>
  </g>
</svg>
